<svg width="585" height="238" viewBox="0 0 585 238" fill="none" xmlns="http://www.w3.org/2000/svg">
<path d="M19.1084 47.5432H85.4924V66.4186H79.406C76.0089 66.4186 73.7442 66.7025 72.4704 67.4121C71.1965 68.1217 70.3472 69.1151 69.9226 70.3924C69.3564 71.6697 69.2149 74.3661 69.2149 78.6237V102.324H118.755V76.7788C118.755 73.6565 118.614 71.5277 118.189 70.3924C117.623 68.8313 116.774 67.6959 115.5 67.1282C114.226 66.5605 111.536 66.2767 107.29 66.2767H102.195V47.5432H168.72V66.4186H163.2C159.378 66.4186 156.972 66.7025 155.698 67.4121C154.424 67.9797 153.575 68.9732 153.15 70.1085C152.726 71.2439 152.443 74.2242 152.443 78.6237V152.422C152.443 156.964 152.726 159.944 153.433 161.221C153.999 162.499 154.99 163.492 156.264 164.06C157.538 164.627 160.369 164.911 165.04 164.911H169.003V183.787H102.478V164.911H106.865C110.97 164.911 113.801 164.627 115.217 163.918C116.632 163.208 117.623 162.357 118.189 161.079C118.755 159.802 119.038 156.964 119.038 152.422V123.612H69.4979V152.422C69.4979 156.964 69.6395 159.802 70.0641 160.937C70.7718 162.499 71.7626 163.634 73.0365 164.202C74.452 164.769 77.1413 165.053 81.2461 165.053H85.7755V183.928H19.1084V165.053H23.6378C27.4595 165.053 30.0073 164.769 31.5642 164.06C33.1212 163.35 34.112 162.499 34.6782 161.363C35.2444 160.228 35.5275 157.673 35.5275 153.699V79.4753C35.5275 74.7919 35.2444 71.8116 34.6782 70.3924C34.112 68.9732 33.2628 67.9797 32.1304 67.2701C30.9981 66.5605 28.7334 66.2767 25.3363 66.2767H19.2499V47.5432H19.1084Z" stroke="#B46483" stroke-width="2" stroke-miterlimit="10"/>
<path d="M271.198 147.739L284.503 161.221C276.859 170.02 269.075 176.407 261.007 180.38C253.08 184.354 244.446 186.341 235.246 186.341C220.383 186.341 207.928 181.374 197.878 171.298C187.687 161.221 182.733 149.016 182.733 134.824C182.733 125.457 184.998 116.8 189.527 109.137C194.056 101.331 200.426 95.2284 208.494 90.8289C216.562 86.4293 225.621 84.3005 235.812 84.3005C242.323 84.3005 248.268 85.294 253.505 87.1389C258.883 88.9839 263.554 91.6804 267.518 95.2284C271.481 98.7764 274.736 103.034 277.143 108.001C279.549 112.968 281.247 118.078 282.097 123.47C282.521 126.167 282.663 130.425 282.663 136.101H217.128C217.27 144.333 219.676 151.003 224.347 156.112C229.018 161.221 234.821 163.776 241.615 163.776C246.003 163.776 250.674 162.499 255.769 159.802C261.148 156.964 266.244 152.99 271.198 147.739ZM251.665 119.497C251.24 115.523 250.249 112.543 248.834 110.272C247.418 108.001 245.578 106.298 243.172 104.879C240.766 103.602 238.36 102.892 235.67 102.892C232.981 102.892 230.292 103.602 227.744 104.879C225.196 106.298 223.214 108.143 221.657 110.414C220.1 112.826 219.11 115.807 218.685 119.355H251.665V119.497Z" stroke="#B46483" stroke-width="2" stroke-miterlimit="10"/>
<path d="M342.394 40.4472V154.693C342.394 158.525 342.536 160.796 342.819 161.505C343.243 162.782 344.234 163.776 345.791 164.344C346.782 164.769 349.33 164.911 353.718 164.911H357.115V183.787H296.817V164.911H300.497C304.461 164.911 306.867 164.627 307.999 164.202C309.131 163.776 309.981 162.924 310.405 161.789C310.972 160.654 311.255 158.383 311.255 154.551V67.554H296.817V48.6786C308.424 47.8271 320.455 45.1306 332.911 40.4472H342.394V40.4472Z" stroke="#B46483" stroke-width="2" stroke-miterlimit="10"/>
<path d="M410.194 40.4472V154.693C410.194 158.525 410.335 160.796 410.618 161.505C411.043 162.782 412.034 163.776 413.591 164.344C414.581 164.769 417.129 164.911 421.517 164.911H424.914V183.787H364.617V164.911H368.297C372.26 164.911 374.666 164.627 375.798 164.202C376.931 163.776 377.78 162.924 378.205 161.789C378.771 160.654 379.054 158.383 379.054 154.551V67.554H364.617V48.6786C376.223 47.8271 388.254 45.1306 400.71 40.4472H410.194V40.4472Z" stroke="#B46483" stroke-width="2" stroke-miterlimit="10"/>
<path d="M488.609 84.0167C499.649 84.0167 509.416 86.1455 517.625 90.545C525.835 94.9446 532.204 100.905 536.734 108.427C541.121 115.949 543.386 124.748 543.386 134.824C543.386 150.01 538.432 162.499 528.524 172.007C518.616 181.516 505.452 186.199 489.033 186.199C472.19 186.199 458.885 181.374 448.835 171.865C439.21 162.782 434.398 150.435 434.398 134.824C434.398 124.606 436.521 115.807 440.909 108.427C445.296 101.047 451.666 95.2284 460.017 90.687C468.368 86.2874 477.851 84.0167 488.609 84.0167ZM488.892 105.447C485.212 105.447 481.673 106.582 478.418 108.711C475.162 110.982 472.614 114.246 470.916 118.503C469.076 122.761 468.226 128.296 468.226 134.966C468.226 141.778 469.076 147.455 470.916 151.996C472.614 156.538 475.021 159.802 478.135 161.931C481.248 164.06 484.646 165.195 488.326 165.195C493.987 165.195 498.941 162.782 503.046 157.957C507.151 153.132 509.133 145.61 509.133 135.392C509.133 125.457 507.293 118.078 503.471 113.11C499.649 107.859 494.837 105.447 488.892 105.447Z" stroke="#B46483" stroke-width="2" stroke-miterlimit="10"/>
</svg>
