<!--?xml version="1.0" encoding="utf-8"?-->
<!-- Generator: Adobe Illustrator 25.2.0, SVG Export Plug-In . SVG Version: 6.00 Build 0)  -->
<svg version="1.1" id="Layer_1" xmlns="http://www.w3.org/2000/svg" xmlns:xlink="http://www.w3.org/1999/xlink" x="0px" y="0px" viewBox="0 0 413.3 167.7" style="" xml:space="preserve">
<style type="text/css">
	.st0{fill:none;stroke:#000000;stroke-miterlimit:10;}
</style>
<g>
	<path class="st0 oojonIlq_0" d="M19.5,31.5h46.9v13.3h-4.3c-2.4,0-4,0.2-4.9,0.7c-0.9,0.5-1.5,1.2-1.8,2.1c-0.4,0.9-0.5,2.8-0.5,5.8v16.7h35
		v-18c0-2.2-0.1-3.7-0.4-4.5c-0.4-1.1-1-1.9-1.9-2.3c-0.9-0.4-2.8-0.6-5.8-0.6h-3.6V31.5h47v13.3h-3.9c-2.7,0-4.4,0.2-5.3,0.7
		c-0.9,0.4-1.5,1.1-1.8,1.9c-0.3,0.8-0.5,2.9-0.5,6v52c0,3.2,0.2,5.3,0.7,6.2c0.4,0.9,1.1,1.6,2,2c0.9,0.4,2.9,0.6,6.2,0.6h2.8v13.3
		h-47v-13.3h3.1c2.9,0,4.9-0.2,5.9-0.7c1-0.5,1.7-1.1,2.1-2c0.4-0.9,0.6-2.9,0.6-6.1V85.1h-35v20.3c0,3.2,0.1,5.2,0.4,6
		c0.5,1.1,1.2,1.9,2.1,2.3c1,0.4,2.9,0.6,5.8,0.6h3.2v13.3H19.5v-13.3h3.2c2.7,0,4.5-0.2,5.6-0.7c1.1-0.5,1.8-1.1,2.2-1.9
		c0.4-0.8,0.6-2.6,0.6-5.4V54c0-3.3-0.2-5.4-0.6-6.4c-0.4-1-1-1.7-1.8-2.2c-0.8-0.5-2.4-0.7-4.8-0.7h-4.3V31.5z"></path>
	<path class="st0 oojonIlq_1" d="M197.6,102.1l9.4,9.5c-5.4,6.2-10.9,10.7-16.6,13.5c-5.6,2.8-11.7,4.2-18.2,4.2c-10.5,0-19.3-3.5-26.4-10.6
		c-7.2-7.1-10.7-15.7-10.7-25.7c0-6.6,1.6-12.7,4.8-18.1c3.2-5.5,7.7-9.8,13.4-12.9c5.7-3.1,12.1-4.6,19.3-4.6c4.6,0,8.8,0.7,12.5,2
		c3.8,1.3,7.1,3.2,9.9,5.7c2.8,2.5,5.1,5.5,6.8,9c1.7,3.5,2.9,7.1,3.5,10.9c0.3,1.9,0.4,4.9,0.4,8.9h-46.3
		c0.1,5.8,1.8,10.5,5.1,14.1c3.3,3.6,7.4,5.4,12.2,5.4c3.1,0,6.4-0.9,10-2.8C190.5,108.6,194.1,105.8,197.6,102.1z M183.8,82.2
		c-0.3-2.8-1-4.9-2-6.5c-1-1.6-2.3-2.8-4-3.8c-1.7-0.9-3.4-1.4-5.3-1.4c-1.9,0-3.8,0.5-5.6,1.4c-1.8,1-3.2,2.3-4.3,3.9
		c-1.1,1.7-1.8,3.8-2.1,6.3H183.8z"></path>
	<path class="st0 oojonIlq_2" d="M247.9,26.5V107c0,2.7,0.1,4.3,0.3,4.8c0.3,0.9,1,1.6,2.1,2c0.7,0.3,2.5,0.4,5.6,0.4h2.4v13.3h-42.6v-13.3h2.6
		c2.8,0,4.5-0.2,5.3-0.5c0.8-0.3,1.4-0.9,1.7-1.7c0.4-0.8,0.6-2.4,0.6-5.1V45.6h-10.2V32.3c8.2-0.6,16.7-2.5,25.5-5.8H247.9z"></path>
	<path class="st0 oojonIlq_3" d="M295.8,26.5V107c0,2.7,0.1,4.3,0.3,4.8c0.3,0.9,1,1.6,2.1,2c0.7,0.3,2.5,0.4,5.6,0.4h2.4v13.3h-42.6v-13.3h2.6
		c2.8,0,4.5-0.2,5.3-0.5c0.8-0.3,1.4-0.9,1.7-1.7c0.4-0.8,0.6-2.4,0.6-5.1V45.6h-10.2V32.3c8.2-0.6,16.7-2.5,25.5-5.8H295.8z"></path>
	<path class="st0 oojonIlq_4" d="M351.2,57.2c7.8,0,14.7,1.5,20.5,4.6c5.8,3.1,10.3,7.3,13.5,12.6c3.1,5.3,4.7,11.5,4.7,18.6
		c0,10.7-3.5,19.5-10.5,26.2c-7,6.7-16.3,10-27.9,10c-11.9,0-21.3-3.4-28.4-10.1c-6.8-6.4-10.2-15.1-10.2-26.1
		c0-7.2,1.5-13.4,4.6-18.6c3.1-5.2,7.6-9.3,13.5-12.5C336.9,58.8,343.6,57.2,351.2,57.2z M351.4,72.3c-2.6,0-5.1,0.8-7.4,2.3
		c-2.3,1.6-4.1,3.9-5.3,6.9c-1.3,3-1.9,6.9-1.9,11.6c0,4.8,0.6,8.8,1.9,12c1.2,3.2,2.9,5.5,5.1,7c2.2,1.5,4.6,2.3,7.2,2.3
		c4,0,7.5-1.7,10.4-5.1c2.9-3.4,4.3-8.7,4.3-15.9c0-7-1.3-12.2-4-15.7C359,74,355.6,72.3,351.4,72.3z"></path>
</g>
<style data-made-with="vivus-instant">.oojonIlq_0{stroke-dasharray:688 690;stroke-dashoffset:689;animation:oojonIlq_draw 2000ms linear 0ms forwards;}.oojonIlq_1{stroke-dasharray:385 387;stroke-dashoffset:386;animation:oojonIlq_draw 2000ms linear 250ms forwards;}.oojonIlq_2{stroke-dasharray:299 301;stroke-dashoffset:300;animation:oojonIlq_draw 2000ms linear 500ms forwards;}.oojonIlq_3{stroke-dasharray:299 301;stroke-dashoffset:300;animation:oojonIlq_draw 2000ms linear 750ms forwards;}.oojonIlq_4{stroke-dasharray:353 355;stroke-dashoffset:354;animation:oojonIlq_draw 2000ms linear 1000ms forwards;}@keyframes oojonIlq_draw{100%{stroke-dashoffset:0;}}@keyframes oojonIlq_fade{0%{stroke-opacity:1;}94.44444444444444%{stroke-opacity:1;}100%{stroke-opacity:0;}}</style></svg>
